:SAMPLES-PER-SECOND 30
:FULLY-SPECIFIED
:DEGREES
163
root  22.4314 37.5725 5.87537 1.52511 54.2659 8.19834
RightUpLeg  -6.81932 -6.25892 -11.0486
RightLeg  68.7742 -1.67028 -5.50052
RightFoot  13.628 -0.328889 1.88899
RightToes  0.00048216 0.542163 -0.142577
Spine  18.0326 2.26203 -3.55916
Spine1  10.1931 3.50767 -6.00596
HEad  8.05292 9.94932 -5.76923
LeftShoulder1  8.67519 -13.6097 -44.1365
LeftArm  -11.6075 18.3773 -18.2034
LeftForeArm  47.4215 -77.8479 -62.0023
LeftHand  -0.25398 0.0180481 5.50724
RightShoulder  5.26389 9.58628 34.2621
RightArm  -9.74223 -18.2582 28.0242
RightForeArm  23.2239 77.6343 83.7654
RightHand  1.29828 -17.0934 -13.5209
LeftUpLeg  -22.5235 24.2504 -12.2049
LeftLeg  31.3701 8.42388 5.86481
LeftFoot  -6.68474 -0.400463 10.8193
LeftToes  1.06244e-005 4.65856e-005 -8.18505e-006
164
root  23.8127 37.9447 6.76587 3.16169 57.912 9.96227
RightUpLeg  -12.0862 -9.24687 -11.6725
RightLeg  69.7261 -1.2061 -4.46716
RightFoot  9.99791 -0.440153 2.73937
RightToes  0.00048216 0.542163 -0.142577
Spine  18.1382 0.898389 -4.97131
Spine1  12.0543 1.4563 -4.0905
HEad  7.46325 10.3033 -6.28246
LeftShoulder1  8.90486 -13.9595 -44.4113
LeftArm  -11.6307 16.5884 -18.005
LeftForeArm  41.0225 -77.0343 -55.7769
LeftHand  -0.25398 0.0180481 5.50724
RightShoulder  5.30703 9.73207 34.1461
RightArm  -9.97454 -16.1423 28.0578
RightForeArm  17.2084 77.4299 77.8598
RightHand  1.24532 -15.7404 -14.5943
LeftUpLeg  -18.6501 20.7239 -12.0426
LeftLeg  30.2712 8.33936 5.58027
LeftFoot  -7.80434 -0.244633 9.36336
LeftToes  1.06244e-005 4.65856e-005 -8.18505e-006
165
root  24.9718 38.247 7.52785 3.51396 58.9577 10.0141
RightUpLeg  -18.1761 -9.60601 -10.7456
RightLeg  67.1438 -1.26793 -4.00403
RightFoot  7.22777 -0.604874 3.97182
RightToes  0.00048216 0.542163 -0.142577
Spine  19.9815 0.427084 -4.48706
Spine1  11.9266 0.962935 -4.20192
HEad  7.37049 10.2616 -6.41776
LeftShoulder1  9.06659 -14.2567 -44.4638
LeftArm  -11.6635 14.6312 -18.153
LeftForeArm  34.4807 -75.9009 -49.359
LeftHand  -0.25398 0.0180481 5.50724
RightShoulder  5.29911 9.70235 34.1762
RightArm  -10.4199 -14.375 28.1132
RightForeArm  12.3588 77.1505 72.8464
RightHand  1.1866 -15.016 -14.9548
LeftUpLeg  -15.9608 20.0604 -11.1031
LeftLeg  29.6446 8.26577 5.40946
LeftFoot  -9.20003 -0.0830069 7.4532
LeftToes  1.06244e-005 4.65856e-005 -8.18505e-006
166
root  26.1285 38.5274 8.30468 3.18614 59.8376 9.55529
RightUpLeg  -22.6481 -9.5812 -9.41142
RightLeg  60.6681 -2.15839 -4.62813
RightFoot  5.49034 -0.293341 2.20711
RightToes  0.00048216 0.542163 -0.142577
Spine  22.0532 0.0204443 -3.53258
Spine1  11.5829 0.671692 -4.45125
HEad  7.52573 10.0362 -6.39424
LeftShoulder1  9.11942 -14.3836 -44.4021
LeftArm  -11.7416 12.6507 -18.679
LeftForeArm  28.6595 -74.5183 -43.5151
LeftHand  -0.25398 0.0180481 5.50724
RightShoulder  5.22958 9.55149 34.1079
RightArm  -10.6849 -12.9082 28.0722
RightForeArm  8.90596 76.8586 68.9066
RightHand  1.11917 -14.7162 -14.6132
LeftUpLeg  -12.8785 19.5516 -9.88273
LeftLeg  28.6886 8.31398 5.24853
LeftFoot  -10.2984 0.00227576 6.73086
LeftToes  1.06244e-005 4.65856e-005 -8.18505e-006
167
root  27.2367 38.7013 9.11761 3.76782 60.8682 9.96195
RightUpLeg  -25.2506 -9.49556 -8.69009
RightLeg  50.3458 -3.61568 -5.03391
RightFoot  3.32562 -0.100018 0.998937
RightToes  0.00048216 0.542163 -0.142577
Spine  23.9255 -0.211253 -3.45262
Spine1  11.2823 0.24461 -4.13053
HEad  7.29496 9.71369 -6.47465
LeftShoulder1  9.17553 -14.4711 -44.4605
LeftArm  -11.9693 10.7305 -19.3485
LeftForeArm  23.8117 -72.963 -38.4982
LeftHand  -0.25398 0.0180481 5.50724
RightShoulder  5.17266 9.47657 33.9031
RightArm  -10.7892 -11.5711 27.8818
RightForeArm  6.07494 76.5442 65.4645
RightHand  1.03909 -14.4416 -14.054
LeftUpLeg  -10.2745 18.5319 -9.1313
LeftLeg  28.063 8.33905 5.1407
LeftFoot  -11.4443 0.0725495 6.17746
LeftToes  1.06244e-005 4.65856e-005 -8.18505e-006
168
root  28.3365 38.6732 10.0184 6.14994 62.3687 11.8236
RightUpLeg  -26.4751 -10.0439 -8.98443
RightLeg  36.9657 -4.38256 -3.85298
RightFoot  2.63607 -0.338256 2.87035
RightToes  0.00048216 0.542163 -0.142577
Spine  25.1555 -0.437908 -4.36866
Spine1  11.1066 -0.389584 -3.70289
HEad  6.57622 9.27273 -6.60264
LeftShoulder1  9.24229 -14.646 -44.3475
LeftArm  -12.1712 8.96258 -20.1639
LeftForeArm  19.8559 -71.3041 -34.3134
LeftHand  -0.25398 0.0180481 5.50724
RightShoulder  5.18248 9.5444 33.7721
RightArm  -10.9879 -10.3689 27.5907
RightForeArm  3.46907 76.1638 61.9591
RightHand  0.940576 -14.1576 -13.2395
LeftUpLeg  -8.8462 16.9659 -8.9899
LeftLeg  28.7536 7.94099 5.04505
LeftFoot  -13.4301 0.150536 4.0008
LeftToes  1.06244e-005 4.65856e-005 -8.18505e-006
169
root  29.4727 38.5423 10.9796 9.04598 64.248 13.8469
RightUpLeg  -27.0046 -11.3704 -9.3045
RightLeg  22.6372 -3.75392 -1.85867
RightFoot  3.62096 -0.557829 4.43693
RightToes  0.00048216 0.542163 -0.142577
Spine  26.1601 -0.905696 -4.73443
Spine1  10.864 -1.04213 -3.57964
HEad  5.69432 8.6608 -6.62984
LeftShoulder1  9.21432 -14.831 -43.7361
LeftArm  -12.069 7.23179 -21.3261
LeftForeArm  16.554 -69.5217 -30.7197
LeftHand  -0.25398 0.0180481 5.50724
RightShoulder  5.18669 9.59586 33.649
RightArm  -11.3796 -9.42672 27.4437
RightForeArm  1.07032 75.6858 58.2397
RightHand  0.812065 -13.7032 -12.2002
LeftUpLeg  -7.88291 15.0352 -8.76672
LeftLeg  29.901 7.4804 4.98641
LeftFoot  -15.6056 0.163331 1.7819
LeftToes  1.06244e-005 4.65856e-005 -8.18505e-006
170
root  30.5897 38.3333 11.9819 12.1312 66.3952 16.2311
RightUpLeg  -26.6707 -11.9767 -10.2329
RightLeg  9.77867 -3.09216 0.10431
RightFoot  2.62791 -0.587705 4.97845
RightToes  0.00048216 0.542163 -0.142577
Spine  27.5473 -1.3419 -4.66591
Spine1  10.6698 -1.66055 -3.27527
HEad  4.72728 7.7401 -6.61201
LeftShoulder1  9.15176 -15.005 -42.989
LeftArm  -11.7206 5.07148 -22.7339
LeftForeArm  13.5029 -67.3297 -27.1715
LeftHand  -0.25398 0.0180481 5.50724
RightShoulder  5.08817 9.48196 33.2389
RightArm  -11.9505 -8.59151 27.6578
RightForeArm  -2.09037 74.9891 53.8831
RightHand  0.686301 -12.9777 -11.4507
LeftUpLeg  -6.82909 12.5649 -8.49537
LeftLeg  31.2648 7.57482 5.30176
LeftFoot  -17.7244 0.177212 1.2406
LeftToes  1.06244e-005 4.65856e-005 -8.18505e-006
171
root  31.6541 37.9734 13.0942 17.2495 68.9385 21.065
RightUpLeg  -25.7685 -11.4064 -12.6594
RightLeg  1.24269 -3.49458 1.52008
RightFoot  0.158885 -0.674197 6.6843
RightToes  0.00048216 0.542163 -0.142577
Spine  29.1742 -1.44014 -5.44466
Spine1  10.8585 -2.38518 -2.2015
HEad  3.51724 6.34025 -6.6716
LeftShoulder1  9.24709 -15.3517 -42.6136
LeftArm  -11.296 2.04013 -24.0054
LeftForeArm  10.4369 -64.3407 -23.3875
LeftHand  -0.25398 0.0180481 5.50724
RightShoulder  4.93154 9.27575 32.6483
RightArm  -12.7829 -7.53543 28.02
RightForeArm  -6.81383 73.9015 48.64
RightHand  0.608438 -12.4067 -11.0785
LeftUpLeg  -6.20615 9.44729 -8.48451
LeftLeg  33.9636 7.33675 5.65085
LeftFoot  -20.1165 0.0921887 -0.256603
LeftToes  1.06244e-005 4.65856e-005 -8.18505e-006
172
root  32.638 37.5323 14.2786 24.8654 71.8964 28.1772
RightUpLeg  -26.3234 -13.0172 -13.9883
RightLeg  -0.0528042 -2.68977 1.87619
RightFoot  1.5114 -0.933805 8.32639
RightToes  0.00048216 0.542163 -0.142577
Spine  30.9623 -1.55498 -5.94205
Spine1  11.3731 -3.23132 -0.857141
HEad  2.10657 4.45247 -6.72514
LeftShoulder1  9.49259 -15.9338 -42.4209
LeftArm  -10.525 -1.89091 -24.9556
LeftForeArm  7.38575 -60.4879 -19.7026
LeftHand  -0.25398 0.0180481 5.50724
RightShoulder  4.85143 9.17607 32.3198
RightArm  -14.0219 -6.29822 28.1225
RightForeArm  -11.8823 72.4507 43.2623
RightHand  0.562271 -12.3507 -10.4315
LeftUpLeg  -7.45876 6.39363 -8.01806
LeftLeg  39.1225 5.72142 5.31346
LeftFoot  -21.0232 -0.266283 -4.80161
LeftToes  1.06244e-005 4.65856e-005 -8.18505e-006
173
root  33.5238 37.0488 15.4261 32.2979 75.2415 34.5595
RightUpLeg  -28.9183 -14.7711 -14.1801
RightLeg  5.19011 -3.31583 2.35895
RightFoot  8.39298 -1.35177 8.1507
RightToes  0.00048216 0.542163 -0.142577
Spine  33.4025 -2.42014 -4.04319
Spine1  11.3828 -3.87749 -0.684965
HEad  0.501818 2.30665 -6.56731
LeftShoulder1  9.72151 -16.5677 -42.043
LeftArm  -9.07946 -6.55191 -25.6649
LeftForeArm  4.47656 -56.0647 -16.5383
LeftHand  -0.25398 0.0180481 5.50724
RightShoulder  4.89566 9.31185 32.2585
RightArm  -15.6601 -4.95054 27.9329
RightForeArm  -15.9857 70.65 38.0961
RightHand  0.480881 -12.4248 -9.04577
LeftUpLeg  -11.831 4.86554 -6.15118
LeftLeg  48.0351 4.10329 5.36738
LeftFoot  -17.6775 -0.345939 -8.10676
LeftToes  1.06244e-005 4.65856e-005 -8.18505e-006
174
root  34.2658 36.5219 16.4441 33.2461 78.7606 34.3752
RightUpLeg  -33.0072 -18.9944 -10.6259
RightLeg  12.633 -1.13746 2.95266
RightFoot  15.9065 -1.39195 6.21113
RightToes  0.00048216 0.542163 -0.142577
Spine  36.8361 -4.03174 0.469562
Spine1  10.6003 -3.92981 -1.66911
HEad  -1.87585 0.376154 -6.26041
LeftShoulder1  9.97711 -17.2169 -41.7709
LeftArm  -7.56756 -11.9174 -26.1646
LeftForeArm  1.94868 -51.399 -13.9731
LeftHand  -0.25398 0.0180481 5.50724
RightShoulder  4.98564 9.67929 31.8765
RightArm  -17.358 -2.50246 27.6153
RightForeArm  -20.0583 67.8012 32.0941
RightHand  0.328912 -11.8554 -7.1283
LeftUpLeg  -18.932 5.71338 -2.917
LeftLeg  59.5916 4.22112 8.46694
LeftFoot  -9.58814 0.0920433 -5.39937
LeftToes  1.06244e-005 4.65856e-005 -8.18505e-006
